# xmcd
#
# Track frame offsets: 
#        150
#        6646
#        19295
#        38655
#        50148
#        67706
#        78797
#        87070
#        94294
#        115368
#        131572
#        148742
#        167409
#
# Disc length: 2522 seconds
#
# Revision: 0
# Processed by: cddbd v1.5.1PL2 Copyright (c) Steve Scherf et al.
# Submitted via: ExactAudioCopy v0.95a3
#
DISCID=a709d80d
DTITLE=Charlie Wood - Tour De Banjo
DYEAR=2005
DGENRE=Bluegrass
TTITLE0=Flight Of The Bumblebee
TTITLE1=Clinch Mountain Backstep
TTITLE2=Danny Boy
TTITLE3=Train Forty-Five
TTITLE4=Green Mountain Hop
TTITLE5=Star Spangled Banner
TTITLE6=Wild Fiddler's Rag
TTITLE7="Prelude" FromPartita No.3 For Solo Violin
TTITLE8=The Blue Wall
TTITLE9=El Cumbanehero
TTITLE10=Rondo Alla Turca (Turkish March)
TTITLE11=Bonepart's Retreat
TTITLE12=What A Wonderful World
EXTD=
EXTT0=
EXTT1=
EXTT2=
EXTT3=
EXTT4=
EXTT5=
EXTT6=
EXTT7=
EXTT8=
EXTT9=
EXTT10=
EXTT11=
EXTT12=
PLAYORDER=
